<?xml version="1.0" encoding="UTF-8" standalone="no"?>
<!-- Created with Inkscape (http://www.inkscape.org/) -->

<svg
   xmlns:dc="http://purl.org/dc/elements/1.1/"
   xmlns:cc="http://creativecommons.org/ns#"
   xmlns:rdf="http://www.w3.org/1999/02/22-rdf-syntax-ns#"
   xmlns:svg="http://www.w3.org/2000/svg"
   xmlns="http://www.w3.org/2000/svg"
   xmlns:sodipodi="http://sodipodi.sourceforge.net/DTD/sodipodi-0.dtd"
   xmlns:inkscape="http://www.inkscape.org/namespaces/inkscape"
   width="203.55295"
   height="194.40215"
   viewBox="0 0 53.856715 51.435568"
   version="1.1"
   id="svg1175"
   inkscape:version="0.92.4 (5da689c313, 2019-01-14)"
   sodipodi:docname="doraemon.svg">
  <defs
     id="defs1169" />
  <sodipodi:namedview
     id="base"
     pagecolor="#ffffff"
     bordercolor="#666666"
     borderopacity="1.0"
     inkscape:pageopacity="0.0"
     inkscape:pageshadow="2"
     inkscape:zoom="3.7605932"
     inkscape:cx="129.37288"
     inkscape:cy="77.130104"
     inkscape:document-units="px"
     inkscape:current-layer="layer1"
     showgrid="false"
     inkscape:window-width="1920"
     inkscape:window-height="1001"
     inkscape:window-x="-9"
     inkscape:window-y="-9"
     inkscape:window-maximized="1"
     units="px"
     fit-margin-top="0"
     fit-margin-left="0"
     fit-margin-right="0"
     fit-margin-bottom="0" />
  <metadata
     id="metadata1172">
    <rdf:RDF>
      <cc:Work
         rdf:about="">
        <dc:format>image/svg+xml</dc:format>
        <dc:type
           rdf:resource="http://purl.org/dc/dcmitype/StillImage" />
        <dc:title></dc:title>
      </cc:Work>
    </rdf:RDF>
  </metadata>
  <g
     inkscape:label="Ebene 1"
     inkscape:groupmode="layer"
     id="layer1"
     transform="translate(41.133526,-61.712743)">
    <path
       inkscape:connector-curvature="0"
       id="path5782"
       style="fill:none;stroke:#535353;stroke-width:1.05833328;stroke-linecap:round;stroke-linejoin:round;stroke-miterlimit:4;stroke-dasharray:none;stroke-opacity:1"
       d="m -14.119864,69.346121 c 0.17758,0.04741 0.415308,0.148045 0.53453,0.26727 0.875479,0.875473 -0.41234,1.525355 -0.801802,1.135894 -0.318239,-0.318239 -0.863128,-1.403164 0.267272,-1.403164 z m -4.877671,0 c 0.399791,0.152702 0.534541,0.298666 0.534541,0.734992 0,1.657537 -1.648091,0.04447 -1.135901,-0.467722 0.13228,-0.132276 0.39079,-0.161987 0.60136,-0.26727 z m 5.14494,-1.403165 c 0.65623,0.06024 0.883319,0.898027 1.13589,1.403165 0.19416,0.388312 0.0422,2.162791 -0.13363,2.338609 -0.4509,0.450894 -1.399249,0.672094 -1.804069,0.267268 -0.0446,-0.04454 -0.22273,0.04454 -0.267271,0 -0.618419,-0.618419 -0.602439,-4.8448 1.06908,-4.009042 z m -5.07813,0.06682 c 0.630231,-0.03697 1.002271,0.459743 1.002271,1.002261 0,0.460003 -0.0668,0.971292 -0.0668,1.336347 0,0.232404 -0.13364,0.583359 -0.13364,0.935443 0,0.922926 -0.37267,1.002261 -1.269531,1.002261 -0.15275,0 -0.12643,-0.126433 -0.20045,-0.200452 -0.16612,-0.166118 -0.368,-0.301181 -0.53454,-0.467722 -0.51862,-0.518626 -0.25739,-3.973165 1.20271,-3.608138 z m -1.40316,-4.276313 c 0.25168,0.211528 0.93049,-0.07177 1.1359,0.133635 0.24701,0.247011 0.721481,0.596854 1.135891,0.734991 0.35886,0.11962 0.3832,0.58365 0.53454,0.734991 0.97392,0.973917 1.06908,2.6891 1.06908,4.34313 0,1.610008 0.0409,2.189939 -0.53454,3.340868 -0.130981,0.261953 -0.009,0.676733 -0.20045,0.868627 -0.31933,0.319327 -0.59439,0.728019 -0.86863,1.00226 -0.0795,0.07949 -0.65033,0.316246 -0.801811,0.467722 -0.22337,0.223373 -0.88859,0.01996 -1.13589,0.267269 -0.17177,0.171769 -0.47322,0.270018 -0.73499,0.400905 -0.45014,0.225065 -1.28004,-0.06682 -1.73726,-0.06682 -0.0634,0 -0.36055,0.04035 -0.4009,0 -0.20954,-0.209534 -0.87915,-0.277788 -1.06908,-0.467721 -0.56508,-0.565083 -1.32781,-0.993728 -1.80407,-1.469983 -0.11136,-0.111362 -0.35636,-0.08909 -0.467719,-0.200452 -0.456401,-0.456399 -0.13364,-2.092563 -0.13364,-2.739513 0,-0.439692 -0.0295,-1.039577 0.20046,-1.269529 0.007,-0.007 0.003,-2.143856 0.267269,-2.672695 1.05639,-2.112785 2.96546,-2.762591 5.54584,-3.407687 z m 8.819899,-0.200452 c 0.275141,0.02846 1.382221,-0.288211 1.6036108,-0.06682 0.4726597,0.472661 1.7850803,0.830642 2.1381614,1.536799 0.1290188,0.25804 0.3225588,0.589834 0.5345377,0.801809 0.089101,0.08909 -0.089098,0.445449 0,0.534539 0.1387502,0.138754 0.231521,0.396225 0.3340814,0.601356 0.3017388,0.603465 2.0623292,3.292083 1.4699906,4.476765 -0.2675599,0.535106 -0.1871398,1.65712 -0.5345403,2.004521 -0.3122507,0.31225 -0.5835412,0.984444 -0.9354503,1.336347 -0.176059,0.176062 -0.5141303,0.180046 -0.6681708,0.334087 -1.0175186,1.017521 -2.8377485,2.155857 -4.4767685,1.336348 -0.474742,-0.237372 -1.701231,0.03602 -2.00452,-0.26727 -0.62972,-0.629727 -1.47446,-1.34531 -1.937701,-2.27179 -0.32601,-0.652019 -0.230839,-1.433557 -0.73499,-1.937704 -0.0527,-0.05273 0.053,-2.658923 0.0668,-2.672695 0.10022,-0.100226 -0.10023,-0.50113 0,-0.601357 0.0445,-0.04454 0.22272,0.04454 0.26726,0 0.0269,-0.02686 0.0998,-1.869988 0.20046,-2.071338 0.14072,-0.281439 0.2763,-0.944479 0.53454,-1.202713 0.14477,-0.144771 0.45658,-0.122499 0.60135,-0.26727 0.28781,-0.287804 0.572359,-0.82072 0.93545,-1.00226 0.69956,-0.349784 1.684821,-0.601357 2.605881,-0.601357 z m -6.080388,12.561667 c 0.82912,0.237387 1.33265,1.540496 0.73499,2.138156 -0.14477,0.144771 -0.72385,-0.144771 -0.86862,0 -0.0222,0.02218 -0.37309,0.161452 -0.46772,0.06682 -0.17321,-0.173208 -0.597401,-0.326167 -0.735001,-0.601357 -0.66142,-1.322848 -0.0207,-1.603617 1.336351,-1.603617 z m -0.13363,-1.135895 c 0.49839,0.144501 1.74107,-0.263446 2.07134,0.06682 0.308039,0.308045 0.66162,0.728438 1.069069,1.135895 0.16677,0.166765 0.0104,0.6786 0.200459,0.868626 0.167042,0.167044 0.100222,0.567948 0.267272,0.734992 0.690988,0.690993 0.243221,2.028565 -0.267272,2.53906 -0.0891,0.08909 -0.0446,0.311815 -0.133638,0.400904 -0.32827,0.328271 -0.78293,0.25783 -1.20271,0.467722 -0.9977,0.49885 -2.64473,0.428875 -3.407691,-0.334087 -0.13586,-0.135862 -0.53231,-0.131407 -0.66817,-0.267269 -0.22659,-0.226588 -0.46049,-0.660938 -0.66818,-0.868626 -0.1071,-0.107104 0.0705,-0.527257 0,-0.668174 -0.62486,-1.249737 0.23417,-2.740119 0.66818,-3.608138 0.0436,-0.08716 1.734551,-0.215131 2.071341,-0.467722 z m 0.4009,6.61492 c -0.28451,1.064713 0.18658,4.757909 -0.4009,5.345392 -0.0681,0.06811 -0.13026,-0.07358 -0.20045,0.06682 -0.094,0.188031 0.0309,0.47272 -0.0668,0.668173 -0.27091,0.541814 0.0668,4.169518 0.0668,5.0113 0,0.97436 -0.23394,2.63922 0.33408,3.20724 0.0949,0.0949 0,0.78636 0,0.93544 0,0.70433 0.0836,1.97133 0.33409,2.47225 m -10.42351,-11.425782 c -0.47619,-0.285793 -0.503671,-0.770938 -0.86863,-1.135896 -0.39174,-0.391745 -1.44986,-0.400905 -2.20497,-0.400905 -0.3806,0 -1.51936,-0.151074 -1.73725,0.06682 -0.3254,0.325401 -1.18654,0.718815 -1.46999,1.00226 -0.0334,0.03341 0.0334,0.167045 0,0.200454 -0.49442,0.494424 -2.26339,2.480639 -1.40316,3.340866 0.20355,0.203551 -0.13392,1.001707 0,1.269534 0.17837,0.356749 0.40105,0.735289 0.53454,1.002259 0.18271,0.79824 0.73109,0.79791 1.13589,1.20271 0.23316,0.23316 0.37019,0.97154 0.66818,1.26953 0.13621,0.13622 0.72652,0.2588 0.86862,0.40091 0.82884,0.82883 1.81461,1.04093 3.073599,1.67043 0.521591,0.26079 1.49172,0.22219 1.870891,0.60136 0.133319,0.13331 0.73977,-0.062 0.86862,0.0668 0.242989,0.24298 2.580999,0.7101 2.873149,1.00226 0.0565,0.0565 5.744871,0.13363 6.147201,0.13363 0.89572,-0.12052 2.333049,0.006 2.873151,-0.53454 0.356359,-0.35636 1.781799,0.35636 2.138158,0 0.785522,-0.78552 2.4916105,-0.34377 3.5413211,-0.86863 0.8316701,-0.41583 2.6424995,-0.83843 3.1404083,-1.33634 0.2450015,-0.245 0.9577202,-0.0223 1.2027217,-0.26727 0.1609698,-0.16097 0.2799582,-0.34679 0.4677198,-0.53454 0.2088991,-0.2089 0.8302096,-0.0952 1.0022602,-0.26727 0.37016,-0.37017 0.9671685,-0.6999 1.3363495,-1.06908 0.0929,-0.0929 2.302e-4,-0.36761 0.2004483,-0.46772 0.74076995,-0.37039 1.04258015,-0.64168 1.60362115,-1.20272 0.0899,-0.0898 0.3678211,-0.10055 0.4677198,-0.20045 0.2691606,-0.26916 0.43994115,-0.640391 0.73499155,-0.935441 0.166449,-0.166447 0.984078,-2.751778 1.135888,-3.207234 m -8.5526193,-1.002241 c 0.3567191,0.185661 1.4613704,-0.275878 1.7372488,0 0.5333709,0.533371 2.8016702,0.730333 3.274052,1.202714 0.10710865,0.107104 0.52725905,-0.07046 0.66817875,0 0.93227,0.466138 4.45426075,1.313847 5.01130075,1.870888 0.10023,0.100226 0.434308,-0.03341 0.53454,0.06682 0.351679,0.351674 0.745448,0.573178 1.202709,0.801807 M -6.1017855,82.308693 c 0.059402,-0.408155 0.8972206,-0.162232 1.0690807,-0.334087 1.2613693,-1.261373 6.2707092,-0.591233 6.8821912,-1.202713 0.350988,-0.350993 1.745218,0.22988 2.204968,0 1.273601,-0.636799 3.107021,-0.534539 4.877671,-0.534539 M -6.9035947,77.230571 c 0.8291195,-0.291853 1.1171899,-0.859271 1.9377104,-1.26953 0.4047199,-0.20236 2.6389594,-0.834896 2.6726885,-0.868625 0.7763404,-0.776333 1.86512205,-0.996492 2.67270175,-1.80407 0.2554288,-0.255433 1.12218745,-0.320381 1.46998045,-0.668174 0.01061,-0.01058 1.803299,-0.466951 1.804069,-0.467722 0.18746,-0.187464 0.70145,-0.334086 1.00226,-0.334086 M -39.310024,91.329039 c 0.22786,-0.211852 0.52016,-0.119253 0.66818,-0.267269 1.23305,-1.233051 4.57243,-1.365199 5.67947,-2.472242 0.0855,-0.08547 2.601209,-0.498793 2.93997,-0.668174 0.74651,-0.373256 1.885499,-0.868627 2.87315,-0.868627 m -13.29666,-6.280834 c 1.07686,-0.0034 4.98405,-0.69542 5.74629,0.06682 0.0769,0.0769 0.5455,0.0055 0.66818,0.06682 0.72711,0.363558 3.52045,-0.31111 4.944479,0.400904 0.499141,0.24957 1.385591,-0.07561 1.804071,0.133635 m -10.62396,-8.285361 c 0.26861,0.185863 1.17375,-0.229416 1.40316,0 0.15591,0.155908 0.57909,0.04454 0.73499,0.200452 0.66321,0.663201 4.10998,0.902746 4.87767,1.670435 0.10663,0.106628 1.57577,0.373054 1.804069,0.601356 0.160591,0.160585 2.26842,0.531164 2.47225,0.734992 0.474561,0.474568 0.37544,0.421579 1.00226,0.734991 m 19.9783894,-5.946746 c 1.9899603,-0.496324 5.07458125,1.065534 6.14719945,2.138155 0.2311214,0.231116 0.88353055,0.08172 1.13590155,0.334087 0.233539,0.233541 0.566848,0.633668 0.801809,0.868626 0.230492,0.230491 0.6687,0.267796 0.868622,0.467722 0.111839,0.111841 0.18565,0.438109 0.267268,0.601356 0.0465,0.09305 1.191311,1.391764 1.33635,1.5368 0.14769,0.147694 0.482391,0.215125 0.601361,0.334087 0.155659,0.155666 0.0818,0.482674 0.267269,0.668174 0.399049,0.399054 0.755671,1.290211 0.935439,1.469982 0.178181,0.17818 0.42318,0.289542 0.601361,0.467722 0.167849,0.167849 0.439211,1.775558 0.53454,1.870886 0.404461,0.404465 1.069071,2.327822 1.069071,3.006782 -0.0496,0.701903 0.01011,1.356556 0.267268,1.870887 0.220541,0.441071 -0.0438,1.758075 -0.200448,2.071339 -0.245941,0.491874 0.133638,1.399241 0.133638,1.737252 0,1.623462 -0.402698,2.7413 -1.336349,3.67496 -0.237141,0.23713 -0.67677,2.55624 -0.86863,2.93996 -0.284091,0.56819 -0.85014,0.98377 -1.269529,1.40317 -0.239792,0.23979 -0.21214,0.61305 -0.46772,0.86862 -0.880012,0.880022 -0.87082,0.939822 -1.46998,2.138162 -0.119821,0.23964 -2.438122,1.50267 -2.80633175,1.87088 -0.141179,0.14118 -0.038799,0.57331 -0.2004589,0.735 -0.2614004,0.2614 -1.3643689,1.33634 -1.73724885,1.33634 M -26.547905,71.417459 c -0.864649,0.35458 -2.794759,0.522972 -3.34087,1.069078 -0.0601,0.06009 -2.028089,0.579735 -2.338599,0.734993 -0.27535,0.137669 -2.20623,1.471232 -2.40543,1.670433 -0.13126,0.131262 -0.82779,0.948433 -0.93544,1.002261 -0.26676,0.133377 -0.71419,0.158847 -0.86863,0.467722 -0.17949,0.358989 -0.29491,0.589817 -0.46772,0.935443 -0.0422,0.08436 0.0641,0.33676 0,0.400904 -0.25212,0.252122 -0.68985,0.288946 -0.93544,0.534539 -0.26045,0.260441 -0.44722,1.763053 -0.66818,2.204974 -0.10215,0.204304 -0.35601,0.356007 -0.46772,0.467722 -0.29542,0.295417 -0.2787,0.880053 -0.60136,1.202712 -0.2868,0.286808 -0.28954,4.432227 -0.80181,4.944487 -0.19341,0.193415 0.13364,1.169808 0.13364,1.469983 M 1.1813337,105.7616 c 0.7797797,-0.3899 1.1811107,-1.04748 1.7372517,-1.60362 0.0683,-0.0684 0.0526,-0.31989 0.13363,-0.4009 0.3506,-0.3506 1.09619,-0.56166 1.469988,-0.93545 0.422701,-0.4227 0.501272,-0.83536 0.868622,-1.20271 0.300238,-0.30024 1.040929,-0.62069 1.5368,-0.86863 0.0723,-0.0362 0.57259,-0.773032 0.734989,-0.935442 0.301699,-0.3017 0.328761,-0.72967 0.668181,-1.06908 0.0641,-0.0641 -0.0422,-0.31654 0,-0.4009 0.11973,-0.23946 1.7283296,-2.66378 1.8708796,-2.80633 0.0899,-0.0899 -0.0331,-0.50146 0.0668,-0.60136 0.65332,-0.65331 0.815509,-3.287752 1.40317,-3.875408 0.0891,-0.08909 -0.0891,-0.445449 0,-0.53454 0.667761,-0.667761 0.075,-4.752219 0.334079,-5.011304 0.490942,-0.490929 -0.133628,-3.805321 -0.133628,-4.610398 0,-0.138422 0.0881,-0.780536 0,-0.868626 -0.519181,-0.51918 -0.47952,-2.016315 -1.135901,-2.672696 -0.101849,-0.101804 -0.0888,-0.623375 -0.200451,-0.734991 -0.9524576,-0.952459 -1.9308176,-2.993022 -2.6058786,-4.34313 -0.18525,-0.370514 -0.78845,-0.588002 -1.06908,-0.868626 -0.186291,-0.186295 -0.240178,-0.507453 -0.53453,-0.801807 -0.0557,-0.05568 0.0557,-0.278407 0,-0.334087 -0.312999,-0.312992 -0.885299,-0.417574 -1.135899,-0.668174 -0.0533,-0.05333 0.035,-0.263987 0,-0.334087 -0.140282,-0.280552 -1.393639,-1.326823 -1.603621,-1.5368 -0.122499,-0.122502 -0.412041,-0.07795 -0.53454,-0.200452 -0.0779,-0.07795 -0.0557,-0.256137 -0.13363,-0.334087 -0.179729,-0.179732 -1.16391,-0.495729 -1.202709,-0.534539 -0.419011,-0.41901 -1.20237075,-0.667824 -1.67044245,-1.135896 -0.1452377,-0.145239 -1.35878885,-0.222893 -1.53679785,-0.400904 -0.3360711,-0.336075 -0.7258103,-0.797218 -1.1358907,-1.002261 -0.3673501,-0.183674 -0.9647396,0.05217 -1.3363495,-0.133635 -0.7195502,-0.359771 -1.6386915,-0.65759 -2.4722507,-0.935443 -0.6519201,-0.217309 -1.5057305,0.09789 -1.9376998,-0.334087 -0.3535389,-0.353539 -1.7397884,0.232592 -2.2049714,0 -0.962308,-0.481151 -2.05658,-0.509867 -3.207239,-0.467721 -1.22263,0.06079 -2.9595,-0.247734 -3.608139,0.400904 -0.096,0.096 -3.397441,-0.07706 -4.142671,0.668174 -0.14477,0.144771 -0.59022,-0.01114 -0.73499,0.133634 -0.18932,0.189316 -0.87977,-0.122498 -1.06908,0.06682 -0.5006,0.119005 -0.66335,0.329263 -0.93545,0.601357 -0.22845,0.228454 -0.908549,0.153597 -1.269529,0.334087 -1.19683,0.598414 -2.57278,1.236432 -3.474501,2.138156 -0.0463,0.04626 -1.164749,0.362944 -1.269529,0.467722 -0.49027,0.490264 -1.53055,0.996012 -2.20497,1.670435 -0.58907,0.589061 -1.05948,1.364956 -1.67044,1.670433 -0.20436,0.102184 -0.5963,0.262219 -0.73499,0.400906 -0.31869,0.318693 -0.45824,0.859145 -0.73499,1.135894 -0.19197,0.191967 -0.5773,0.376844 -0.73499,0.534539 -0.13364,0.133635 0,0.53454 -0.13364,0.668174 -0.61691,0.61691 -1.39289,2.533925 -1.9377,2.80633 -0.5317,0.191449 -0.83059,3.10238 -0.93544,3.207234 -0.0578,0.05778 -0.6505,1.30099 -0.735,1.469983 -0.14096,0.281924 0.21427,1.122085 0,1.336348 -0.44871,0.448711 -0.23211,2.370267 -0.46772,2.605877 0.0124,0.878106 -0.14376,3.356281 0.20045,3.741773 0.25614,0.256133 -0.25613,1.280668 0,1.536801 0.58377,0.58376 0.69093,2.628628 0.86863,2.806328 0.25627,0.25627 0.88107,2.15059 1.26953,2.53906 0.25486,0.25486 0.10753,1.10979 0.33409,1.33635 0.31567,0.31567 0.58105,0.82802 0.80181,1.26953 0.11011,0.22022 0.43593,0.30229 0.60135,0.46772 0.0759,0.0759 0.086,0.30559 0.13364,0.4009 0.20826,0.41653 0.82755,0.6271 1.13589,0.93545 0.35466,0.35465 0.3719,0.973252 0.66818,1.269532 0.43753,0.43753 0.89436,0.56028 1.33634,1.00226 0.10774,0.10773 0.11244,0.35851 0.20046,0.53454 0.42375,0.84751 1.26463,1.53435 2.07134,1.9377 m 13.83119,8.0849 c 0.0397,-0.95904 0,-2.01801 0,-3.0736 m 0.13364,-0.0668 c -0.285921,0.0112 -0.53454,-0.13764 -0.53454,-0.4009 0,-1.44639 2.04115,-0.3524 0.53454,0.4009 z m -3.875411,-0.4009 c 0.75133,-0.353 1.1895,-0.76179 1.9377,-1.1359 0.0844,-0.0422 0.336761,0.0641 0.400911,0 1.097699,-1.09769 3.783909,0.0421 4.47676,0.735 0.32567,0.32567 0.43412,0.63457 0.734999,0.93544 m -7.14947,-1.87089 c 0.2933,-0.37084 0.60362,-0.46998 0.86863,-0.73499 0.0861,-0.0861 4.65345,-0.22422 4.810851,-0.0668 0.326809,0.32681 1.054429,0.57206 1.26953,1.00226 m -3.34087,-2.60587 c 0.846399,0.0107 2.53777,0.86733 2.939968,1.26953 0.175961,0.17596 0.261882,0.52915 0.467723,0.73499 0.044,0.044 -0.20107,1.06846 0,1.26953 0.247697,0.24769 0.419147,1.91946 0.0668,2.27179 -0.211551,0.21155 -0.398891,0.59934 -0.668182,0.86863 -0.229909,0.22991 -0.735399,0.33449 -1.069069,0.66817 -0.0668,0.0668 -0.33409,-0.0668 -0.40091,0 -0.0985,0.0985 -1.4806,0.59074 -1.80407,0.26727 -0.25778,-0.25778 -1.2452,-0.2217 -1.60362,-0.40091 -0.34844,-0.17422 -0.51462,-0.4478 -0.8018,-0.73499 -0.13973,-0.13972 -0.48475,-0.2345 -0.60136,-0.46772 -0.85237,-1.70473 -0.51861,-3.49043 0.66817,-4.67721 0.31872,-0.31872 0.86247,-0.32793 1.26953,-0.735 0.10812,-0.10811 1.20347,-0.22297 1.5368,-0.33408 z m 3.27405,2.13815 c 1.446649,0 7.3708493,-0.0459 7.8844584,0.46772 0.2379319,0.23794 3.1029301,-0.23793 3.3408699,0 0.2069597,0.20697 0.7755916,0.25417 1.0690701,0.40091 0.32642175,0.16321 0.44274055,-0.10863 0.53454035,-0.20045 0.1655313,-0.16553 2.25093965,0.0877 2.53906065,-0.20046 0.0533,-0.0533 -0.0351,-0.26398 0,-0.33408 0.6218,-1.2436 -1.29225135,-1.87089 -2.07134075,-1.87089 -0.6996907,0 -3.26487895,0.1428 -3.60813085,-0.20045 -0.2484596,-0.24846 -2.0792493,0 -2.4722481,0 -3.3339298,0 -6.5644997,-0.27584 -10.0894197,-0.33409 -0.6362,-0.0377 -6.320171,-0.10615 -6.347651,-0.13363 -0.32279,-0.32279 -1.19863,-0.33409 -1.73726,-0.33409 -0.57336,0 -2.59731,0.20474 -3.00678,0 -0.520959,-0.26048 -3.193429,-0.41471 -3.674949,0.0668 -0.0775,0.0775 -0.41845,1.65289 -0.26727,1.80407 0.16395,0.16396 0.54371,0.27645 0.73499,0.46772 0.28645,0.28645 1.92348,0.0668 2.405419,0.0668 2.710161,0 5.13862,0.20045 7.95127,0.20045" />
  </g>
</svg>
